<svg width="46" height="46" viewBox="0 0 46 46" fill="none" xmlns="http://www.w3.org/2000/svg">
<path d="M26.1863 15.3998C24.9937 16.25 23.5344 16.7501 21.9582 16.7501C17.9311 16.7501 14.6665 13.4855 14.6665 9.45841C14.6665 5.43134 17.9311 2.16675 21.9582 2.16675C24.5686 2.16675 26.8586 3.53845 28.1467 5.60038M10.4998 39.8483H15.9379C16.647 39.8483 17.3517 39.9327 18.039 40.1014L23.785 41.4977C25.0318 41.8015 26.3306 41.831 27.5904 41.5863L33.9435 40.3503C35.6218 40.0234 37.1656 39.2198 38.3755 38.0428L42.8704 33.6703C44.1541 32.4237 44.1541 30.401 42.8704 29.1523C41.7147 28.0281 39.8847 27.9015 38.5772 28.8549L33.3386 32.6769C32.5883 33.2253 31.6755 33.5206 30.7366 33.5206H25.678L28.8979 33.5204C30.7128 33.5204 32.1829 32.0903 32.1829 30.3249V29.6858C32.1829 28.2199 31.1573 26.9417 29.6958 26.5873L24.7261 25.3787C23.9173 25.1825 23.089 25.0834 22.2564 25.0834C20.2464 25.0834 16.6079 26.7476 16.6079 26.7476L10.4998 29.3019M39.6665 11.5417C39.6665 15.5688 36.4019 18.8334 32.3748 18.8334C28.3478 18.8334 25.0832 15.5688 25.0832 11.5417C25.0832 7.51467 28.3478 4.25008 32.3748 4.25008C36.4019 4.25008 39.6665 7.51467 39.6665 11.5417ZM2.1665 28.4167L2.1665 40.5001C2.1665 41.6669 2.1665 42.2502 2.39357 42.6959C2.59331 43.0879 2.91202 43.4066 3.30402 43.6063C3.74967 43.8334 4.33306 43.8334 5.49984 43.8334H7.1665C8.33328 43.8334 8.91667 43.8334 9.36232 43.6063C9.75432 43.4066 10.073 43.0879 10.2728 42.6959C10.4998 42.2502 10.4998 41.6669 10.4998 40.5001V28.4167C10.4998 27.25 10.4998 26.6666 10.2728 26.2209C10.073 25.8289 9.75432 25.5102 9.36232 25.3105C8.91667 25.0834 8.33328 25.0834 7.1665 25.0834L5.49984 25.0834C4.33306 25.0834 3.74967 25.0834 3.30402 25.3105C2.91202 25.5102 2.59331 25.8289 2.39357 26.2209C2.1665 26.6666 2.1665 27.25 2.1665 28.4167Z" stroke="#2F2F2F" stroke-width="4.16667" stroke-linecap="round" stroke-linejoin="round"/>
</svg>
